<svg width="13" height="13" viewBox="0 0 13 13" fill="none" xmlns="http://www.w3.org/2000/svg">
<path d="M5.97995 7.97258L4.67495 6.66758C4.56495 6.55758 4.42995 6.50258 4.26995 6.50258C4.10995 6.50258 3.96995 6.56258 3.84995 6.68258C3.73995 6.79258 3.68495 6.93258 3.68495 7.10258C3.68495 7.27258 3.73995 7.41258 3.84995 7.52258L5.55995 9.23258C5.66995 9.34258 5.80995 9.39758 5.97995 9.39758C6.14995 9.39758 6.28995 9.34258 6.39995 9.23258L9.80495 5.82758C9.91495 5.71758 9.96995 5.58258 9.96995 5.42258C9.96995 5.26258 9.90995 5.12258 9.78995 5.00258C9.67995 4.89258 9.53995 4.83758 9.36995 4.83758C9.19995 4.83758 9.05995 4.89258 8.94995 5.00258L5.97995 7.97258ZM6.81995 12.8926C5.98995 12.8926 5.20995 12.735 4.47995 12.4198C3.74995 12.105 3.11495 11.6776 2.57495 11.1376C2.03495 10.5976 1.60755 9.96258 1.29275 9.23258C0.977546 8.50258 0.819946 7.72258 0.819946 6.89258C0.819946 6.06258 0.977546 5.28258 1.29275 4.55258C1.60755 3.82258 2.03495 3.18758 2.57495 2.64758C3.11495 2.10758 3.74995 1.67998 4.47995 1.36478C5.20995 1.04998 5.98995 0.892578 6.81995 0.892578C7.64995 0.892578 8.42995 1.04998 9.15995 1.36478C9.88995 1.67998 10.5249 2.10758 11.0649 2.64758C11.6049 3.18758 12.0323 3.82258 12.3471 4.55258C12.6623 5.28258 12.8199 6.06258 12.8199 6.89258C12.8199 7.72258 12.6623 8.50258 12.3471 9.23258C12.0323 9.96258 11.6049 10.5976 11.0649 11.1376C10.5249 11.6776 9.88995 12.105 9.15995 12.4198C8.42995 12.735 7.64995 12.8926 6.81995 12.8926Z" fill="#15ADFF"/>
</svg>
