<svg width="34" height="34" viewBox="0 0 34 34" fill="none" xmlns="http://www.w3.org/2000/svg">
<g id="Group 40130" filter="url(#filter0_d_3513_2014)">
<g id="Group 4">
<circle id="Ellipse 2" cx="17" cy="17" r="14" fill="#F2F0F2"/>
<g id="Group 1">
<mask id="mask0_3513_2014" style="mask-type:alpha" maskUnits="userSpaceOnUse" x="3" y="3" width="28" height="28">
<circle id="Ellipse 1" cx="17" cy="17" r="14" fill="#FCFCFC"/>
</mask>
<g mask="url(#mask0_3513_2014)">
<g id="Rectangle 1">
<rect x="7.55" y="27.85" width="19.25" height="3.5" fill="#D90026"/>
<rect x="7.55" y="27.85" width="19.25" height="3.5" fill="#D90026"/>
</g>
<g id="Rectangle 2">
<rect x="3.35001" y="20.85" width="27.65" height="3.5" fill="#D90026"/>
<rect x="3.35001" y="20.85" width="27.65" height="3.5" fill="#D90026"/>
</g>
<g id="Rectangle 3">
<rect x="3.35001" y="13.5" width="27.65" height="3.5" fill="#D90026"/>
<rect x="3.35001" y="13.5" width="27.65" height="3.5" fill="#D90026"/>
</g>
<g id="Rectangle 4">
<rect x="3.35001" y="6.5" width="27.65" height="3.5" fill="#D90026"/>
<rect x="3.35001" y="6.5" width="27.65" height="3.5" fill="#D90026"/>
</g>
<rect id="Rectangle 5" x="3" y="3" width="14.35" height="14" fill="#0052B5"/>
<path id="Vector 1" d="M14.55 14.725L13.5 15.25L13.85 14.2L13.15 13.5H14.2L14.55 12.45L15.075 13.5H15.95L15.25 14.2L15.6 15.25L14.55 14.725Z" fill="#EFEFEF"/>
<path id="Vector 4" d="M9.65 14.725L8.6 15.25L8.95 14.2L8.25 13.5H9.3L9.65 12.45L10.175 13.5H11.05L10.35 14.2L10.7 15.25L9.65 14.725Z" fill="#EFEFEF"/>
<path id="Vector 5" d="M4.75001 14.725L3.70001 15.25L4.05001 14.2L3.35001 13.5H4.40001L4.75001 12.45L5.27501 13.5H6.15001L5.45001 14.2L5.80001 15.25L4.75001 14.725Z" fill="#EFEFEF"/>
<path id="Vector 2" d="M14.55 10.875L13.5 11.4L13.85 10.35L13.15 9.64998H14.2L14.55 8.59998L15.075 9.64998H15.95L15.25 10.35L15.6 11.4L14.55 10.875Z" fill="#EFEFEF"/>
<path id="Vector 6" d="M14.55 7.025L13.5 7.55L13.85 6.5L13.15 5.8H14.2L14.55 4.75L15.075 5.8H15.95L15.25 6.5L15.6 7.55L14.55 7.025Z" fill="#EFEFEF"/>
<path id="Vector 9" d="M14.55 3.17502L13.5 3.70002L13.85 2.65002L13.15 1.95002H14.2L14.55 0.900024L15.075 1.95002H15.95L15.25 2.65002L15.6 3.70002L14.55 3.17502Z" fill="#EFEFEF"/>
<path id="Vector 7" d="M9.65 7.025L8.6 7.55L8.95 6.5L8.25 5.8H9.3L9.65 4.75L10.175 5.8H11.05L10.35 6.5L10.7 7.55L9.65 7.025Z" fill="#EFEFEF"/>
<path id="Vector 3" d="M9.65 10.875L8.6 11.4L8.95 10.35L8.25 9.64998H9.3L9.65 8.59998L10.175 9.64998H11.05L10.35 10.35L10.7 11.4L9.65 10.875Z" fill="#EFEFEF"/>
<path id="Vector 8" d="M4.75001 10.875L3.70001 11.4L4.05001 10.35L3.35001 9.64998H4.40001L4.75001 8.59998L5.27501 9.64998H6.15001L5.45001 10.35L5.80001 11.4L4.75001 10.875Z" fill="#EFEFEF"/>
</g>
</g>
</g>
</g>
<defs>
<filter id="filter0_d_3513_2014" x="0" y="0" width="34" height="34" filterUnits="userSpaceOnUse" color-interpolation-filters="sRGB">
<feFlood flood-opacity="0" result="BackgroundImageFix"/>
<feColorMatrix in="SourceAlpha" type="matrix" values="0 0 0 0 0 0 0 0 0 0 0 0 0 0 0 0 0 0 127 0" result="hardAlpha"/>
<feOffset/>
<feGaussianBlur stdDeviation="1.5"/>
<feComposite in2="hardAlpha" operator="out"/>
<feColorMatrix type="matrix" values="0 0 0 0 0 0 0 0 0 0 0 0 0 0 0 0 0 0 0.4 0"/>
<feBlend mode="normal" in2="BackgroundImageFix" result="effect1_dropShadow_3513_2014"/>
<feBlend mode="normal" in="SourceGraphic" in2="effect1_dropShadow_3513_2014" result="shape"/>
</filter>
</defs>
</svg>
