<svg width="34" height="34" viewBox="0 0 34 34" fill="none" xmlns="http://www.w3.org/2000/svg">
<g id="Group 40144" filter="url(#filter0_d_3564_1888)">
<path id="Vector" d="M17 31C24.732 31 31 24.732 31 17C31 9.26801 24.732 3 17 3C9.26801 3 3 9.26801 3 17C3 24.732 9.26801 31 17 31Z" fill="white"/>
<g id="Group 40145">
<path id="Vector_2" d="M13.2184 17.7475C14.4496 18.5829 16.1644 18.2312 16.9998 17C17.8352 15.7689 19.5061 15.4171 20.7812 16.2525C21.9684 17.044 22.3202 18.5829 21.6606 19.7701C23.1116 17.3078 22.4521 14.098 19.9898 12.4711C17.4835 10.8003 14.0978 11.4598 12.427 13.9661C12.383 14.054 12.339 14.142 12.295 14.1859C11.6795 15.4611 12.0752 16.956 13.2184 17.7475Z" fill="#D90026"/>
<path id="Vector_3" d="M21.5288 20.0339C21.5728 19.946 21.6167 19.8581 21.6607 19.8141C21.6167 19.8581 21.5728 19.946 21.5288 20.0339Z" fill="black"/>
<path id="Vector_4" d="M20.7812 16.2525C19.5501 15.4171 17.8352 15.7689 16.9998 17C16.1644 18.2312 14.4935 18.5829 13.2184 17.7475C12.0312 16.956 11.6795 15.4171 12.339 14.2299C10.844 16.6922 11.5476 19.902 14.0099 21.5289C16.5162 23.1998 19.9018 22.5402 21.5727 20.0339C21.6167 19.946 21.6606 19.8581 21.7046 19.8141C22.3202 18.539 21.9244 17.044 20.7812 16.2525Z" fill="#0052B5"/>
<g id="Group">
<path id="Vector_5" d="M6.35923 13.1746L9.39315 8.64573L9.08536 8.42588L8.77757 8.25L5.74365 12.7789L6.05144 12.9548L6.35923 13.1746Z" fill="black"/>
<path id="Vector_6" d="M7.19475 13.7462L7.50254 13.9221L10.4925 9.39323L10.2287 9.21735L9.92088 8.9975L6.88696 13.5264L7.19475 13.7462Z" fill="black"/>
<path id="Vector_7" d="M11.02 9.745L8.03003 14.2739L8.33782 14.4937L8.64561 14.6696L11.6356 10.1407L11.3278 9.96484L11.02 9.745Z" fill="black"/>
<path id="Vector_8" d="M24.2551 21.6169L24.5628 21.8367L25.9699 19.7262L25.6621 19.5063L25.3543 19.3304L23.9473 21.441L24.2551 21.6169Z" fill="black"/>
<path id="Vector_9" d="M27.6407 20.8254L26.2336 22.9359L26.5414 23.1558L26.8492 23.3317L28.2563 21.2211L27.9485 21.0452L27.6407 20.8254Z" fill="black"/>
<path id="Vector_10" d="M25.7059 22.5842L27.1129 20.4736L26.8052 20.2538L26.4974 20.0779L25.0903 22.1884L25.3981 22.3643L25.7059 22.5842Z" fill="black"/>
<path id="Vector_11" d="M24.0791 21.9247L23.7713 21.7488L22.3643 23.8593L22.672 24.0352L22.9798 24.2551L24.3869 22.1445L24.0791 21.9247Z" fill="black"/>
<path id="Vector_12" d="M25.1784 22.6722L24.9146 22.4963L23.5076 24.6068L23.7714 24.7827L24.0792 25.0026L25.4862 22.892L25.1784 22.6722Z" fill="black"/>
<path id="Vector_13" d="M26.0137 23.2437L24.6067 25.3543L24.9145 25.5741L25.2223 25.75L26.6293 23.6394L26.3215 23.4196L26.0137 23.2437Z" fill="black"/>
<path id="Vector_14" d="M6.05144 21.0452L5.74365 21.2211L8.77757 25.75L9.08536 25.5741L9.39315 25.3543L6.35923 20.8254L6.05144 21.0452Z" fill="black"/>
<path id="Vector_15" d="M8.82146 22.6722L8.51367 22.892L9.92071 25.0026L10.2285 24.7827L10.4923 24.6068L9.08528 22.4963L8.82146 22.6722Z" fill="black"/>
<path id="Vector_16" d="M8.33782 19.5063L8.03003 19.7262L11.02 24.2551L11.3278 24.0352L11.6356 23.8593L8.64561 19.3304L8.33782 19.5063Z" fill="black"/>
<path id="Vector_17" d="M6.88696 20.4736L8.294 22.5842L8.60179 22.3643L8.90958 22.1884L7.50254 20.0779L7.19475 20.2538L6.88696 20.4736Z" fill="black"/>
<path id="Vector_18" d="M26.3215 10.5804L26.6293 10.3606L25.2223 8.25L24.9145 8.42588L24.6067 8.64573L26.0137 10.7563L26.3215 10.5804Z" fill="black"/>
<path id="Vector_19" d="M24.0791 12.0754L24.3869 11.8555L22.9798 9.745L22.672 9.96484L22.3643 10.1407L23.7713 12.2513L24.0791 12.0754Z" fill="black"/>
<path id="Vector_20" d="M26.2336 11.0641L27.6407 13.1746L27.9485 12.9548L28.2563 12.7789L26.8492 10.6683L26.5414 10.8442L26.2336 11.0641Z" fill="black"/>
<path id="Vector_21" d="M26.8053 13.7462L27.1131 13.5264L24.0792 8.9975L23.7714 9.21735L23.5076 9.39323L26.4975 13.9221L26.8053 13.7462Z" fill="black"/>
<path id="Vector_22" d="M25.6621 14.4937L25.9699 14.2739L24.5628 12.1633L24.2551 12.3832L23.9473 12.5591L25.3543 14.6696L25.6621 14.4937Z" fill="black"/>
</g>
</g>
</g>
<defs>
<filter id="filter0_d_3564_1888" x="0" y="0" width="34" height="34" filterUnits="userSpaceOnUse" color-interpolation-filters="sRGB">
<feFlood flood-opacity="0" result="BackgroundImageFix"/>
<feColorMatrix in="SourceAlpha" type="matrix" values="0 0 0 0 0 0 0 0 0 0 0 0 0 0 0 0 0 0 127 0" result="hardAlpha"/>
<feOffset/>
<feGaussianBlur stdDeviation="1.5"/>
<feComposite in2="hardAlpha" operator="out"/>
<feColorMatrix type="matrix" values="0 0 0 0 0 0 0 0 0 0 0 0 0 0 0 0 0 0 0.4 0"/>
<feBlend mode="normal" in2="BackgroundImageFix" result="effect1_dropShadow_3564_1888"/>
<feBlend mode="normal" in="SourceGraphic" in2="effect1_dropShadow_3564_1888" result="shape"/>
</filter>
</defs>
</svg>
