<svg width="14" height="12" viewBox="0 0 14 12" fill="none" xmlns="http://www.w3.org/2000/svg">
<path d="M7.04004 5.22461L7.14062 5.23047C7.63956 5.25913 8.11255 5.43217 8.51758 5.7373V5.73633C9.15087 6.21356 9.84205 6.80373 10.4053 7.44727C10.9054 8.01881 11.2643 8.58739 11.4248 9.12012L11.4814 9.3457C11.6272 10.093 11.4259 10.6314 11.085 10.9297L11.083 10.9316C10.8561 11.1312 10.5443 11.25 10.1562 11.25C9.93355 11.25 9.6819 11.2096 9.41406 11.1191L9.41309 11.1182L9.13086 11.0303C8.46802 10.84 7.76545 10.749 7 10.749C6.12501 10.749 5.33216 10.868 4.58691 11.1182H4.58594C3.84302 11.3688 3.26577 11.2384 2.91699 10.9316L2.91504 10.9297C2.57409 10.6314 2.37282 10.093 2.51855 9.3457C2.63603 8.74949 3.02324 8.10031 3.59473 7.44727C4.15465 6.80751 4.84046 6.21988 5.4707 5.74414C5.93024 5.4174 6.39217 5.25667 6.86035 5.23047L6.96387 5.22461H7.04004ZM1.24023 3.69629C1.51645 3.61967 2.07147 3.82482 2.2793 4.55859C2.37136 4.88319 2.35174 5.19305 2.25391 5.43359C2.15173 5.68091 1.99711 5.79709 1.85156 5.83789L1.8457 5.83984C1.79504 5.85441 1.74894 5.86035 1.70605 5.86035C1.59139 5.86029 1.44803 5.82072 1.29492 5.70898L1.29199 5.70703L1.21484 5.64551C1.03863 5.49147 0.889501 5.26266 0.808594 4.97949H0.80957C0.71724 4.65396 0.737377 4.34338 0.835938 4.10254L0.834961 4.10156C0.936842 3.85668 1.09202 3.73878 1.24023 3.69629ZM11.7207 4.55859C11.9283 3.82562 12.4823 3.62036 12.7588 3.69629V3.69727C12.9071 3.73964 13.0621 3.8567 13.1641 4.10156V4.10254C13.2503 4.31315 13.2771 4.57689 13.2207 4.85742L13.1904 4.97949C13.0979 5.30298 12.9174 5.55596 12.708 5.70703L12.7051 5.70898C12.552 5.82072 12.4086 5.86029 12.2939 5.86035C12.2511 5.86035 12.205 5.85441 12.1543 5.83984L12.1484 5.83789L12.0381 5.79199C11.947 5.74071 11.8583 5.65481 11.7871 5.52051L11.7461 5.43359C11.6483 5.19305 11.6286 4.88319 11.7207 4.55859ZM4.37988 0.770508C4.68625 0.685276 5.24631 0.896343 5.50293 1.58398L5.5498 1.72754C5.77806 2.53254 5.38285 3.06288 5.05762 3.15723C4.9993 3.17247 4.94632 3.17965 4.90039 3.17969C4.591 3.17969 4.13813 2.90963 3.92578 2.32324L3.88672 2.20215C3.78533 1.84475 3.80771 1.5005 3.91797 1.2334V1.23242C4.02994 0.960397 4.20277 0.822211 4.37988 0.770508ZM8.4502 1.72754C8.67804 0.926365 9.29217 0.680314 9.61914 0.770508C9.79656 0.822008 9.96987 0.959936 10.082 1.23242V1.2334C10.1786 1.46723 10.2078 1.76024 10.1455 2.06934L10.1133 2.20215C9.92264 2.87251 9.42956 3.17969 9.09961 3.17969C9.05344 3.17965 9.00008 3.17264 8.94141 3.15723C8.63666 3.0681 8.27064 2.5964 8.41406 1.875L8.4502 1.72754Z" stroke="#454545" stroke-width="1.5"/>
</svg>
