<svg width="16" height="12" viewBox="0 0 16 12" fill="none" xmlns="http://www.w3.org/2000/svg">
<path d="M13.9424 0.396316L7.99711 0.410795L2.05177 0.381836H2.04887C1.2496 0.381836 0.615387 1.13188 0.615387 2.07016V9.92971C0.615387 10.868 1.2496 11.618 2.04887 11.618H13.9511C14.7504 11.618 15.3846 10.868 15.3846 9.92971V2.07016C15.3846 1.13188 14.7562 0.396316 13.9424 0.396316ZM13.4762 1.55469L8.16507 6.41116L8.1448 6.42853L8.12742 6.44881C8.06371 6.51831 7.98842 6.527 7.94788 6.527C7.90733 6.527 7.83204 6.51541 7.77123 6.44301L7.75385 6.42274L2.67729 1.53152L7.99711 1.56627L13.4762 1.55469ZM13.9511 10.4597H2.04887C1.94751 10.4597 1.77376 10.2685 1.77376 9.92971V2.2555L6.91693 7.22491C7.17756 7.51451 7.54534 7.68247 7.93629 7.68826H7.95367C8.33883 7.68826 8.69792 7.52899 8.96145 7.25098L14.232 2.42636V9.92971C14.2262 10.2685 14.0525 10.4597 13.9511 10.4597Z" fill="#454545"/>
</svg>
